<svg width="266" height="266" viewBox="0 0 266 266" fill="none" xmlns="http://www.w3.org/2000/svg">
<rect x="5" y="5" width="256" height="256" rx="50" fill="#5B2D44"/>
<g filter="url(#filter0_dd_1_63)">
<path d="M38 150V127.67L103.534 96.3636C106.457 95.0501 109.233 93.9555 111.863 93.0798C114.493 92.2041 116.466 91.6203 117.781 91.3284C116.32 91.0365 114.201 90.4527 111.425 89.577C108.795 88.5553 106.164 87.3878 103.534 86.0742L38 54.7681V32L134 78.6308V103.369L38 150Z" fill="white"/>
</g>
<g filter="url(#filter1_i_1_63)">
<rect x="5" y="5" width="256" height="256" rx="50" stroke="#31E2E8" stroke-width="10"/>
</g>
<path d="M73.4109 224.48C70.7869 224.48 68.6589 223.6 67.0269 221.84C65.4269 220.08 64.6269 217.696 64.6269 214.688V206.96C64.6269 203.92 65.4269 201.52 67.0269 199.76C68.6269 198 70.7549 197.12 73.4109 197.12C75.5869 197.12 77.3309 197.712 78.6429 198.896C79.9549 200.08 80.6109 201.664 80.6109 203.648L79.7469 202.64H80.7069L80.6109 196.64V188.96H84.9309V224H80.6109V218.96H79.7469L80.6109 217.952C80.6109 219.968 79.9549 221.568 78.6429 222.752C77.3309 223.904 75.5869 224.48 73.4109 224.48ZM74.8509 220.736C76.6429 220.736 78.0509 220.176 79.0749 219.056C80.0989 217.936 80.6109 216.384 80.6109 214.4V207.2C80.6109 205.216 80.0989 203.664 79.0749 202.544C78.0509 201.424 76.6429 200.864 74.8509 200.864C73.0269 200.864 71.5869 201.408 70.5309 202.496C69.4749 203.584 68.9469 205.152 68.9469 207.2V214.4C68.9469 216.448 69.4749 218.016 70.5309 219.104C71.5869 220.192 73.0269 220.736 74.8509 220.736ZM103.728 224.48C101.648 224.48 99.8241 224.064 98.2561 223.232C96.7201 222.4 95.5201 221.232 94.6561 219.728C93.8241 218.192 93.4081 216.416 93.4081 214.4V207.2C93.4081 205.152 93.8241 203.376 94.6561 201.872C95.5201 200.368 96.7201 199.2 98.2561 198.368C99.8241 197.536 101.648 197.12 103.728 197.12C105.808 197.12 107.616 197.536 109.152 198.368C110.72 199.2 111.92 200.368 112.752 201.872C113.616 203.376 114.048 205.152 114.048 207.2V211.856H97.6321V214.4C97.6321 216.48 98.1601 218.08 99.2161 219.2C100.272 220.288 101.776 220.832 103.728 220.832C105.392 220.832 106.736 220.544 107.76 219.968C108.784 219.36 109.408 218.464 109.632 217.28H113.952C113.664 219.488 112.576 221.248 110.688 222.56C108.832 223.84 106.512 224.48 103.728 224.48ZM109.824 208.976V207.2C109.824 205.12 109.296 203.52 108.24 202.4C107.216 201.28 105.712 200.72 103.728 200.72C101.776 200.72 100.272 201.28 99.2161 202.4C98.1601 203.52 97.6321 205.12 97.6321 207.2V208.592H110.16L109.824 208.976ZM129.581 224L120.749 197.6H125.165L131.021 215.36C131.373 216.416 131.693 217.44 131.981 218.432C132.269 219.392 132.477 220.144 132.605 220.688C132.765 220.144 132.989 219.392 133.277 218.432C133.565 217.44 133.869 216.416 134.189 215.36L139.901 197.6H144.269L135.437 224H129.581ZM161.291 224.48C159.211 224.48 157.387 224.064 155.819 223.232C154.283 222.4 153.083 221.232 152.219 219.728C151.387 218.192 150.971 216.416 150.971 214.4V207.2C150.971 205.152 151.387 203.376 152.219 201.872C153.083 200.368 154.283 199.2 155.819 198.368C157.387 197.536 159.211 197.12 161.291 197.12C163.371 197.12 165.179 197.536 166.715 198.368C168.283 199.2 169.483 200.368 170.315 201.872C171.179 203.376 171.611 205.152 171.611 207.2V211.856H155.195V214.4C155.195 216.48 155.723 218.08 156.779 219.2C157.835 220.288 159.339 220.832 161.291 220.832C162.955 220.832 164.299 220.544 165.323 219.968C166.347 219.36 166.971 218.464 167.195 217.28H171.515C171.227 219.488 170.139 221.248 168.251 222.56C166.395 223.84 164.075 224.48 161.291 224.48ZM167.387 208.976V207.2C167.387 205.12 166.859 203.52 165.803 202.4C164.779 201.28 163.275 200.72 161.291 200.72C159.339 200.72 157.835 201.28 156.779 202.4C155.723 203.52 155.195 205.12 155.195 207.2V208.592H167.723L167.387 208.976ZM193.672 224C192.136 224 190.792 223.696 189.64 223.088C188.488 222.48 187.592 221.616 186.952 220.496C186.312 219.376 185.992 218.064 185.992 216.56V192.896H177.112V188.96H190.312V216.56C190.312 217.648 190.616 218.512 191.224 219.152C191.832 219.76 192.648 220.064 193.672 220.064H202.072V224H193.672Z" fill="#00FFEE"/>
<defs>
<filter id="filter0_dd_1_63" x="34" y="32" width="104" height="126" filterUnits="userSpaceOnUse" color-interpolation-filters="sRGB">
<feFlood flood-opacity="0" result="BackgroundImageFix"/>
<feColorMatrix in="SourceAlpha" type="matrix" values="0 0 0 0 0 0 0 0 0 0 0 0 0 0 0 0 0 0 127 0" result="hardAlpha"/>
<feOffset dy="4"/>
<feGaussianBlur stdDeviation="2"/>
<feComposite in2="hardAlpha" operator="out"/>
<feColorMatrix type="matrix" values="0 0 0 0 0 0 0 0 0 0 0 0 0 0 0 0 0 0 0.25 0"/>
<feBlend mode="normal" in2="BackgroundImageFix" result="effect1_dropShadow_1_63"/>
<feColorMatrix in="SourceAlpha" type="matrix" values="0 0 0 0 0 0 0 0 0 0 0 0 0 0 0 0 0 0 127 0" result="hardAlpha"/>
<feOffset dy="4"/>
<feGaussianBlur stdDeviation="2"/>
<feComposite in2="hardAlpha" operator="out"/>
<feColorMatrix type="matrix" values="0 0 0 0 0 0 0 0 0 0 0 0 0 0 0 0 0 0 0.25 0"/>
<feBlend mode="normal" in2="effect1_dropShadow_1_63" result="effect2_dropShadow_1_63"/>
<feBlend mode="normal" in="SourceGraphic" in2="effect2_dropShadow_1_63" result="shape"/>
</filter>
<filter id="filter1_i_1_63" x="0" y="0" width="269" height="270" filterUnits="userSpaceOnUse" color-interpolation-filters="sRGB">
<feFlood flood-opacity="0" result="BackgroundImageFix"/>
<feBlend mode="normal" in="SourceGraphic" in2="BackgroundImageFix" result="shape"/>
<feColorMatrix in="SourceAlpha" type="matrix" values="0 0 0 0 0 0 0 0 0 0 0 0 0 0 0 0 0 0 127 0" result="hardAlpha"/>
<feOffset dx="3" dy="8"/>
<feGaussianBlur stdDeviation="2"/>
<feComposite in2="hardAlpha" operator="arithmetic" k2="-1" k3="1"/>
<feColorMatrix type="matrix" values="0 0 0 0 0 0 0 0 0 0 0 0 0 0 0 0 0 0 0.25 0"/>
<feBlend mode="normal" in2="shape" result="effect1_innerShadow_1_63"/>
</filter>
</defs>
</svg>
